<svg width="80" height="80" fill="none" xmlns="http://www.w3.org/2000/svg"><path d="M39.993 41.16v8.334m0 0H16.66v8.333m23.333-8.334h23.334v8.334m-23.334-8.334v8.334m0 0h-9v18h18v-18h-9Zm14 0h18.334v18H53.993v-18Zm-46.333 0h18v18h-18v-18ZM40.402 4.16h-.807a3.667 3.667 0 0 0-3.667 3.667v.33a3.667 3.667 0 0 1-1.833 3.172l-.789.458a3.667 3.667 0 0 1-3.667 0l-.275-.146a3.667 3.667 0 0 0-5.005 1.338l-.404.697a3.667 3.667 0 0 0 1.339 5.005l.275.184a3.666 3.666 0 0 1 1.833 3.153v.935a3.666 3.666 0 0 1-1.833 3.19l-.275.166a3.667 3.667 0 0 0-1.338 5.005l.403.697a3.667 3.667 0 0 0 5.005 1.338l.275-.146a3.667 3.667 0 0 1 3.667 0l.789.458a3.666 3.666 0 0 1 1.833 3.172v.33a3.667 3.667 0 0 0 3.667 3.667h.807a3.667 3.667 0 0 0 3.667-3.667v-.33a3.667 3.667 0 0 1 1.833-3.172l.789-.458a3.667 3.667 0 0 1 3.667 0l.275.146a3.667 3.667 0 0 0 5.005-1.338l.404-.715a3.666 3.666 0 0 0-1.339-5.005l-.275-.147a3.667 3.667 0 0 1-1.833-3.19v-.917a3.667 3.667 0 0 1 1.833-3.19l.275-.166a3.667 3.667 0 0 0 1.339-5.005l-.404-.697a3.667 3.667 0 0 0-5.005-1.338l-.275.146a3.666 3.666 0 0 1-3.667 0l-.789-.458a3.666 3.666 0 0 1-1.833-3.172v-.33a3.667 3.667 0 0 0-3.667-3.667Zm5.097 18.335a5.5 5.5 0 1 1-11.001 0 5.5 5.5 0 0 1 11.001 0Z" stroke="#fff" stroke-width="3" stroke-linecap="round" stroke-linejoin="round"/></svg>