<svg width="322" height="80" fill="none" xmlns="http://www.w3.org/2000/svg"><path d="m93.663 47.114-3.4-5.317c-.607-.943-1.103-1.565-1.486-1.869-.383-.303-.974-.455-1.772-.455h-1.94v7.64h-1.869v-7.64h-1.94c-.798 0-1.389.152-1.772.455-.367.304-.862.926-1.485 1.869l-3.401 5.317h-2.132l3.856-5.964c.56-.862 1.006-1.477 1.341-1.844.352-.384.743-.647 1.174-.79-.335-.16-.662-.416-.982-.767-.319-.368-.743-.943-1.27-1.725l-3.688-5.677h2.132l3.233 5.03c.623.958 1.118 1.59 1.485 1.893.383.287.975.43 1.773.43h1.676v-7.353h1.869v7.354h1.676c.815 0 1.406-.152 1.773-.455.383-.304.878-.927 1.485-1.869l3.233-5.03h2.132l-3.665 5.677c-.958 1.405-1.708 2.236-2.251 2.491.415.144.79.4 1.126.767.351.367.814.99 1.389 1.868l3.832 5.964h-2.132Zm16.992 0-3.401-5.317c-.623-.943-1.126-1.565-1.509-1.869-.367-.303-.95-.455-1.749-.455h-2.731v7.64h-1.868V30.348h1.868v7.354h2.468c.798 0 1.381-.144 1.748-.431.383-.304.886-.935 1.509-1.893l3.234-5.03h2.131l-3.688 5.677c-.527.782-.95 1.357-1.27 1.725-.319.35-.646.606-.982.766.431.144.815.407 1.15.79.352.368.807.983 1.365 1.845l3.856 5.964h-2.131Zm13.334-16.767h6.467c1.15 0 2.123.152 2.922.455.798.288 1.381.68 1.748 1.174.384.495.647.966.791 1.413.144.447.215.918.215 1.413 0 1.789-.734 2.979-2.203 3.57.878.207 1.573.67 2.084 1.389.51.702.766 1.548.766 2.538 0 3.21-2.068 4.815-6.203 4.815h-6.587V30.347Zm3.305 3.114v3.593h3.521c.798 0 1.365-.176 1.701-.527.335-.367.503-.79.503-1.27 0-1.197-.735-1.796-2.204-1.796h-3.521Zm0 6.443v4.072h3.976c.846 0 1.453-.184 1.821-.55.383-.384.574-.879.574-1.486 0-.575-.199-1.054-.598-1.437-.384-.4-.982-.599-1.797-.599h-3.976Zm14.405-7.209c1.66-1.677 3.672-2.515 6.035-2.515 2.364 0 4.376.838 6.036 2.515 1.677 1.66 2.515 3.672 2.515 6.036 0 2.363-.838 4.383-2.515 6.06-1.66 1.66-3.672 2.49-6.036 2.49-2.363 0-4.375-.83-6.035-2.49-1.661-1.677-2.491-3.697-2.491-6.06 0-2.364.83-4.376 2.491-6.036Zm9.772 2.131c-1.006-1.022-2.251-1.532-3.737-1.532-1.485 0-2.73.51-3.736 1.532-.99 1.022-1.485 2.324-1.485 3.905 0 1.596.495 2.906 1.485 3.928 1.006 1.006 2.251 1.509 3.736 1.509 1.501 0 2.747-.503 3.737-1.51 1.006-1.021 1.509-2.33 1.509-3.927 0-1.581-.503-2.883-1.509-3.905Zm12.074 2.108h2.108c.798 0 1.365-.175 1.701-.527.335-.367.502-.79.502-1.27 0-1.229-.782-1.843-2.347-1.843h-.12c-.67 0-1.429.151-2.275.455-.83.303-1.549.702-2.156 1.197l-2.155-1.988a10.5 10.5 0 0 1 3.042-2.012c1.133-.51 2.275-.766 3.425-.766h.167c.863.016 1.629.127 2.3.335.686.208 1.221.471 1.605.79.399.304.726.663.982 1.078.255.415.423.807.503 1.174.095.367.143.742.143 1.126 0 .91-.207 1.708-.622 2.395-.416.686-.967 1.165-1.653 1.437.862.208 1.541.663 2.036 1.365.511.703.766 1.55.766 2.54 0 1.452-.503 2.626-1.509 3.52-.99.878-2.554 1.326-4.694 1.342h-.168a8.327 8.327 0 0 1-3.641-.839 9.775 9.775 0 0 1-3.018-2.227l2.156-1.988c.591.574 1.309 1.045 2.156 1.413.862.351 1.684.527 2.467.527h.119c1.997-.032 2.994-.735 2.994-2.108 0-.575-.199-1.054-.598-1.437-.384-.4-.982-.599-1.797-.599h-2.419v-3.09Zm11.465-6.587h5.509c2.3 0 4.12.607 5.462 1.82 1.341 1.198 2.011 2.74 2.011 4.623 0 1.9-.67 3.458-2.011 4.671-1.342 1.198-3.162 1.797-5.462 1.797h-2.203v3.856h-3.306V30.347Zm3.306 9.797h2.467c1.165 0 2.132-.28 2.898-.838.782-.56 1.174-1.398 1.174-2.515 0-1.07-.392-1.893-1.174-2.467-.783-.575-1.748-.863-2.898-.863h-2.467v6.683Zm14.708-7.449c1.661-1.677 3.673-2.515 6.036-2.515 2.363 0 4.375.838 6.036 2.515 1.677 1.66 2.515 3.672 2.515 6.036 0 2.363-.838 4.383-2.515 6.06-1.661 1.66-3.673 2.49-6.036 2.49-2.363 0-4.375-.83-6.036-2.49-1.66-1.677-2.491-3.697-2.491-6.06 0-2.364.831-4.376 2.491-6.036Zm9.773 2.131c-1.006-1.022-2.252-1.532-3.737-1.532-1.485 0-2.73.51-3.736 1.532-.99 1.022-1.485 2.324-1.485 3.905 0 1.596.495 2.906 1.485 3.928 1.006 1.006 2.251 1.509 3.736 1.509 1.501 0 2.747-.503 3.737-1.51 1.006-1.021 1.509-2.33 1.509-3.927 0-1.581-.503-2.883-1.509-3.905Zm26.395 12.288-3.449-5.39c-.399-.59-.743-.99-1.03-1.197-.287-.208-.702-.311-1.246-.311h-.91v6.898h-3.305v-6.898h-.91c-.559 0-.982.103-1.27.311-.287.208-.623.607-1.006 1.198l-3.449 5.389h-3.736l4.095-6.395c.767-1.182 1.446-1.909 2.036-2.18-.51-.271-1.157-.942-1.94-2.012l-3.928-6.18h3.737l3.281 5.174c.4.59.743.99 1.03 1.198.287.207.703.311 1.246.311h.814v-6.683h3.305v6.683h.791c.543 0 .958-.104 1.245-.311.304-.208.647-.607 1.03-1.198l3.306-5.174h3.736l-3.952 6.18c-.734 1.038-1.373 1.709-1.916 2.012.591.288 1.269 1.014 2.036 2.18l4.096 6.395h-3.737Zm22.919 3.09h-3.305v-3.09h-10.922v3.09h-3.306V44h2.228l5.605-13.653h1.964L249.908 44h2.203v6.204Zm-8.766-13.797L240.351 44h6.012l-3.018-7.593Zm15.249.719h7.257v3.114h-7.257V44h7.856v3.114h-11.162V30.347h11.162v3.114h-7.856v3.665Zm24.521 9.988h-3.305V40.24h-6.491v6.874h-3.306V30.347h3.306v6.779h6.491v-6.779h3.305v16.767Zm17.54 0h-3.306V36.55l-7.952 10.563h-1.94V30.347h3.305V40.91l7.929-10.563h1.964v16.767Zm7.861-9.988h7.258v3.114h-7.258V44h7.856v3.114h-11.161V30.347h11.161v3.114h-7.856v3.665ZM33.52 42.566V13.413l-5.749-4.311-9.58 7.185v30.968c3.666-1.347 7.787-2.525 11.871-3.693 1.16-.332 2.316-.663 3.458-.996Z" fill="#fff"/><path d="M33.04 42.705V13.054l-.957-.719v30.647c.32-.092.64-.184.958-.277Zm-1.436.415V11.976l-.958-.718v32.137l.958-.275Zm-1.437.412V10.898l-.959-.718v33.626a9546.86 9546.86 0 0 0 .959-.274Zm-1.437.411V9.82l-.959-.718v35.117l.959-.276Z" fill="#002040"/><path d="M42.142 39.77v-8.632l-4.31-2.396-7.666 3.354v11.436c4.215-1.206 8.387-2.402 11.976-3.762Z" fill="#fff"/><path d="M41.664 39.95v-9.078l-.958-.533v9.957a81.2 81.2 0 0 0 .958-.346Zm-1.438.514v-10.39l-.958-.533v11.248c.323-.107.642-.216.958-.325Zm-1.436.484V29.275l-.959-.533v12.516c.322-.103.642-.206.958-.31Z" fill="#002040"/><path d="M24.418 45.205V28.263L18.67 24.91l-9.581 5.27v21.743c3.492-2.813 9.187-4.863 15.33-6.718Z" fill="#fff"/><path d="M23.939 45.35V27.985l-.958-.559v18.22c.318-.098.637-.197.958-.294Zm-4.311 1.393c-.323.112-.642.224-.958.338v-22.17l.958.558v21.274Zm1.437-.484c-.322.106-.641.212-.958.32V25.75l.958.558V46.26Zm1.437-.463-.958.306V26.587l.958.559v18.65Z" fill="#002040"/><path d="m23.912 53.357.027-.01v.026l-.027-.016Z" fill="#fff"/><path d="M59.149 33.773C57.915 51.497 6.215 50.06 9.089 66.347c-18.443-23.233 41.106-20.359 43.593-34.97 1.916-11.257-25.15-26.586-25.15-26.586s32.634 14.37 31.617 28.982Z" fill="#fff"/><path d="M64.178 37.844C62.313 57.433 8.85 58.204 17.711 75.21c-22.994-21.318 40.09-20.36 43.593-39.042 1.617-8.623-6.227-15.09-6.227-15.09s10.06 6.707 9.101 16.766Z" fill="#fff"/></svg>