<svg width="80" height="80" viewBox="0 0 80 80" fill="none" xmlns="http://www.w3.org/2000/svg">
<path d="M65 33.1331C68.1025 34.9208 70.752 37.3986 72.7432 40.3746C74.7344 43.3506 76.014 46.7449 76.4829 50.2948C76.9518 53.8447 76.5974 57.4549 75.4471 60.8458C74.2969 64.2368 72.3816 67.3175 69.8497 69.8494C67.3177 72.3814 64.237 74.2966 60.8461 75.4469C57.4551 76.5972 53.845 76.9516 50.2951 76.4827C46.7452 76.0138 43.3509 74.7342 40.3749 72.743C37.3989 70.7517 34.9211 68.1023 33.1334 64.9998M23.3334 19.9999H26.6667V33.3332M57.6667 47.6667L60.0001 50L50.6667 59.3334M50 26.6666C50 39.5532 39.5534 49.9999 26.6667 49.9999C13.7801 49.9999 3.33337 39.5532 3.33337 26.6666C3.33337 13.7799 13.7801 3.33325 26.6667 3.33325C39.5534 3.33325 50 13.7799 50 26.6666Z" stroke="white" stroke-width="3" stroke-linejoin="round"/>
</svg>
